<svg width="35" height="35" viewBox="0 0 35 35" fill="none" xmlns="http://www.w3.org/2000/svg">
<g clip-path="url(#clip0_54_1436)">
<path d="M17.5 35C27.165 35 35 27.165 35 17.5C35 7.83502 27.165 0 17.5 0C7.83502 0 0 7.83502 0 17.5C0 27.165 7.83502 35 17.5 35Z" fill="#E9573E"/>
<path fill-rule="evenodd" clip-rule="evenodd" d="M13.1704 21.9062L22.1792 21.9906V24.0391L26.1448 25.9301L17.2605 34.2661L9.63693 25.5784L13.1704 24.0742V21.9062Z" fill="#F9DCA4"/>
<path fill-rule="evenodd" clip-rule="evenodd" d="M30.287 29.446C28.6518 31.2009 26.6723 32.5998 24.4722 33.5554C22.2722 34.511 19.8987 35.0028 17.5 35.0001C16.7736 35 16.0479 34.9552 15.327 34.8659C13.116 34.5491 10.9769 33.8508 9.00487 32.8021C7.34057 31.8758 5.8379 30.6851 4.55566 29.2766L5.28228 27.521L11.6978 24.6587C12.1934 27.2276 14.0963 31.1914 17.461 33.4381C19.0346 32.4877 20.4004 31.2295 21.4764 29.7389C22.5524 28.2482 23.3165 26.5558 23.723 24.7629L29.4222 27.5397L30.287 29.446Z" fill="#677079"/>
<path opacity="0.11" fill-rule="evenodd" clip-rule="evenodd" d="M22.5354 24.2084C22.9477 24.4049 23.6528 24.734 23.7214 24.7742C22.5717 28.3807 14.8184 29.7014 12.5327 24.346L22.5354 24.2084Z" fill="black"/>
<path fill-rule="evenodd" clip-rule="evenodd" d="M17.6298 4.77542C29.6821 4.77542 24.9849 24.7481 17.6298 24.7481C10.683 24.7481 5.57736 4.77542 17.6298 4.77542Z" fill="#FFE8BE"/>
<path fill-rule="evenodd" clip-rule="evenodd" d="M10.4009 13.6178C8.66223 14.3767 10.1404 17.9713 11.2346 17.9548C10.7808 16.5486 10.5008 15.0921 10.4009 13.6178Z" fill="#F9DCA4"/>
<path fill-rule="evenodd" clip-rule="evenodd" d="M24.9985 13.6178C26.7371 14.3761 25.259 17.9713 24.1654 17.9548C24.6189 16.5485 24.8987 15.092 24.9985 13.6178Z" fill="#F9DCA4"/>
<path fill-rule="evenodd" clip-rule="evenodd" d="M13.2502 8.74267C12.9149 10.3103 13.0327 11.8689 11.5466 12.1566C11.1932 12.2246 10.9593 12.7031 10.8829 13.125C10.7105 14.0454 10.6384 14.9818 10.6677 15.9177C10.7266 16.2399 10.4434 15.2992 10.4434 15.2992L10.3952 13.5017C10.3952 13.5017 10.3743 13.1573 10.3822 12.6323C10.3992 11.5676 10.5204 9.84138 11.0596 9.31355C11.8643 8.52633 13.2502 8.74267 13.2502 8.74267Z" fill="#AD835F"/>
<path fill-rule="evenodd" clip-rule="evenodd" d="M22.1413 8.74267C22.4765 10.3103 22.3593 11.8689 23.8448 12.1566C24.1982 12.2246 24.4327 12.7031 24.5086 13.125C24.6738 14.0492 24.7331 14.9892 24.6853 15.9268C24.6258 16.2496 24.909 15.3083 24.909 15.3083L25.003 13.5085C25.003 13.5085 25.0172 13.1573 25.0087 12.6323C24.9928 11.5676 24.8716 9.84138 24.3319 9.31355C23.5271 8.52633 22.1413 8.74267 22.1413 8.74267Z" fill="#AD835F"/>
<path fill-rule="evenodd" clip-rule="evenodd" d="M14.3648 26.322C13.5096 25.4968 12.8255 24.8569 12.2047 24.2163C11.409 23.3946 11.1394 22.5615 10.9848 21.1026C10.6339 18.5816 10.4367 16.0415 10.3941 13.4966C10.3941 13.4966 10.9797 17.0832 12.0716 18.8514C12.6323 19.7592 14.926 17.6252 15.8407 17.3007C16.1517 17.1568 16.5022 17.1223 16.8353 17.2027C17.1684 17.283 17.4645 17.4737 17.6756 17.7436C17.8829 17.4732 18.1764 17.2819 18.5074 17.2013C18.8384 17.1208 19.187 17.1558 19.4953 17.3007C20.4105 17.6252 22.6725 19.4483 23.2649 18.8514C24.6892 17.4151 24.9962 13.5017 24.9962 13.5017C24.9367 16.075 24.7232 18.6425 24.3568 21.1904C24.1512 22.7455 24.047 23.3481 23.5152 23.9564C22.7346 24.8331 21.8675 25.6287 20.927 26.3311C20.4581 26.7026 19.6431 27.0515 17.5669 27.039C15.6379 27.0277 14.8467 26.787 14.3648 26.322Z" fill="#60350A"/>
<path fill-rule="evenodd" clip-rule="evenodd" d="M22.4295 9.05983C22.7299 9.00169 23.0408 9.03715 23.3204 9.16143C23.5999 9.2857 23.8346 9.4928 23.9926 9.75473C24.8739 11.2346 24.9469 11.4255 24.9469 11.4255C24.9469 11.4255 24.8427 8.77835 24.7798 8.46347C24.8556 8.3937 24.9556 8.3563 25.0586 8.35927C25.1615 8.36223 25.2593 8.40531 25.3309 8.47932C25.3932 8.60505 25.0794 5.8175 23.4421 5.28287C22.8435 3.58271 20.7497 2.32316 20.7497 2.32316L20.6552 3.26782C20.4443 2.62651 20.0489 2.06167 19.5185 1.64409C18.9881 1.2265 18.3462 0.974728 17.6733 0.920319C18.0511 1.34564 17.9605 1.65657 17.9605 1.65657C17.3712 1.4097 16.7371 1.28782 16.0983 1.29864C16.1776 1.80212 15.5949 2.33788 15.5949 2.33788C15.5949 2.33788 15.233 1.78626 13.8001 1.59767C13.5481 2.51062 13.0752 2.66806 12.6193 3.09338C12.2363 3.48565 11.8839 3.90674 11.5653 4.35294C11.5653 4.35294 11.6123 3.47114 11.9272 3.21911C12.0456 3.14096 9.25633 4.24023 10.6518 8.33661C10.4018 8.33053 10.1571 8.40897 9.95718 8.55922C9.75728 8.70948 9.61392 8.92277 9.55026 9.1646C10.3375 9.38491 10.0118 10.5748 10.4524 11.3462C10.7622 10.4513 10.9673 8.70813 12.9036 9.1646C14.29 9.49138 15.6209 10.192 17.2191 10.248C19.4772 10.3267 20.3346 9.14138 22.4295 9.05983Z" fill="#60350A"/>
<path fill-rule="evenodd" clip-rule="evenodd" d="M18.3581 21.8575C18.5787 21.8945 18.8047 21.8839 19.021 21.8265C19.2372 21.7691 19.4387 21.6661 19.6119 21.5245C20.0197 21.0544 20.3522 20.3867 19.7337 20.0277C19.13 19.5989 18.4363 19.3138 17.7056 19.194C16.9706 19.3118 16.2723 19.5966 15.6645 20.0265C14.9056 20.4654 15.37 21.0544 15.7784 21.5245C15.9516 21.6661 16.1531 21.7691 16.3693 21.8265C16.5856 21.8839 16.8116 21.8945 17.0322 21.8575C16.5729 20.2582 18.8179 20.2582 18.3581 21.8575Z" fill="#FFE8BE"/>
</g>
<defs>
<clipPath id="clip0_54_1436">
<rect width="35" height="35" fill="white"/>
</clipPath>
</defs>
</svg>
