<svg width="35" height="35" viewBox="0 0 35 35" fill="none" xmlns="http://www.w3.org/2000/svg">
<g clip-path="url(#clip0_95_209)">
<path d="M17.5 35C27.165 35 35 27.165 35 17.5C35 7.83502 27.165 0 17.5 0C7.83502 0 0 7.83502 0 17.5C0 27.165 7.83502 35 17.5 35Z" fill="#501E16"/>
<path fill-rule="evenodd" clip-rule="evenodd" d="M13.1704 21.9062L22.1792 21.9906V24.0391L26.1448 25.9301L17.2605 34.2662L9.63693 25.5784L13.1704 24.0742V21.9062Z" fill="#312B20"/>
<path fill-rule="evenodd" clip-rule="evenodd" d="M30.287 29.4459C28.6518 31.2008 26.6723 32.5997 24.4722 33.5554C22.2722 34.511 19.8987 35.0028 17.5001 35.0001C16.7736 35 16.0479 34.9552 15.327 34.8659C13.1161 34.549 10.9769 33.8507 9.00488 32.8021C7.34058 31.8758 5.83792 30.6851 4.55568 29.2766L5.2823 27.5209L11.6979 24.6586C12.1934 27.2276 14.0963 31.1914 17.461 33.4381C19.0347 32.4877 20.4004 31.2295 21.4764 29.7388C22.5524 28.2482 23.3165 26.5557 23.7231 24.7628L29.4222 27.5396L30.287 29.4459Z" fill="#262A2D"/>
<path opacity="0.11" fill-rule="evenodd" clip-rule="evenodd" d="M22.5354 24.2084C22.9477 24.405 23.6528 24.734 23.7214 24.7742C22.5717 28.3807 14.8184 29.7014 12.5326 24.3461L22.5354 24.2084Z" fill="black"/>
<path fill-rule="evenodd" clip-rule="evenodd" d="M17.6298 4.77539C29.6821 4.77539 24.9849 24.7481 17.6298 24.7481C10.683 24.7481 5.57736 4.77539 17.6298 4.77539Z" fill="#433D31"/>
<path fill-rule="evenodd" clip-rule="evenodd" d="M10.4009 13.6177C8.66225 14.3766 10.1404 17.9712 11.2346 17.9548C10.7808 16.5485 10.5008 15.092 10.4009 13.6177Z" fill="#312B20"/>
<path fill-rule="evenodd" clip-rule="evenodd" d="M24.9985 13.6177C26.7371 14.3761 25.259 17.9712 24.1654 17.9548C24.6189 16.5485 24.8986 15.092 24.9985 13.6177Z" fill="#312B20"/>
<path fill-rule="evenodd" clip-rule="evenodd" d="M13.2502 8.74267C12.9149 10.3103 13.0327 11.8689 11.5466 12.1566C11.1932 12.2246 10.9593 12.7031 10.8829 13.125C10.7105 14.0454 10.6384 14.9818 10.6677 15.9177C10.7266 16.2399 10.4434 15.2992 10.4434 15.2992L10.3953 13.5017C10.3953 13.5017 10.3743 13.1573 10.3822 12.6323C10.3992 11.5676 10.5204 9.84138 11.0596 9.31355C11.8644 8.52633 13.2502 8.74267 13.2502 8.74267Z" fill="#382B1F"/>
<path fill-rule="evenodd" clip-rule="evenodd" d="M22.1413 8.74267C22.4765 10.3103 22.3593 11.8689 23.8448 12.1566C24.1982 12.2246 24.4327 12.7031 24.5086 13.125C24.6738 14.0492 24.733 14.9892 24.6853 15.9268C24.6258 16.2496 24.909 15.3083 24.909 15.3083L25.003 13.5085C25.003 13.5085 25.0171 13.1573 25.0087 12.6323C24.9928 11.5676 24.8716 9.84138 24.3319 9.31355C23.5271 8.52633 22.1413 8.74267 22.1413 8.74267Z" fill="#382B1F"/>
<path fill-rule="evenodd" clip-rule="evenodd" d="M14.3648 26.322C13.5096 25.4969 12.8255 24.8569 12.2047 24.2164C11.409 23.3946 11.1394 22.5615 10.9848 21.1026C10.6339 18.5816 10.4367 16.0415 10.3941 13.4966C10.3941 13.4966 10.9797 17.0832 12.0716 18.8514C12.6323 19.7592 14.926 17.6252 15.8407 17.3007C16.1517 17.1568 16.5022 17.1223 16.8353 17.2027C17.1684 17.2831 17.4645 17.4737 17.6756 17.7436C17.8829 17.4732 18.1764 17.2819 18.5074 17.2013C18.8384 17.1208 19.187 17.1558 19.4953 17.3007C20.4105 17.6252 22.6725 19.4483 23.2649 18.8514C24.6892 17.4151 24.9962 13.5017 24.9962 13.5017C24.9367 16.075 24.7232 18.6425 24.3568 21.1904C24.1512 22.7456 24.047 23.3482 23.5152 23.9564C22.7346 24.8331 21.8675 25.6287 20.927 26.3311C20.4581 26.7026 19.6431 27.0515 17.5669 27.039C15.6379 27.0277 14.8467 26.787 14.3648 26.322Z" fill="#1F1104"/>
<path fill-rule="evenodd" clip-rule="evenodd" d="M22.4295 9.0598C22.7299 9.00166 23.0408 9.03712 23.3204 9.1614C23.5999 9.28567 23.8346 9.49277 23.9926 9.7547C24.8739 11.2346 24.9469 11.4254 24.9469 11.4254C24.9469 11.4254 24.8427 8.77832 24.7799 8.46344C24.8556 8.39367 24.9557 8.35627 25.0586 8.35924C25.1616 8.3622 25.2593 8.40528 25.3309 8.47929C25.3932 8.60502 25.0795 5.81747 23.4421 5.28284C22.8435 3.58268 20.7497 2.32312 20.7497 2.32312L20.6552 3.26779C20.4443 2.62648 20.0489 2.06164 19.5185 1.64406C18.9881 1.22647 18.3462 0.974697 17.6734 0.920288C18.0511 1.34561 17.9605 1.65654 17.9605 1.65654C17.3712 1.40967 16.7371 1.28779 16.0984 1.29861C16.1776 1.80209 15.5949 2.33785 15.5949 2.33785C15.5949 2.33785 15.233 1.78623 13.8001 1.59764C13.5481 2.51058 13.0752 2.66803 12.6193 3.09335C12.2363 3.48562 11.8839 3.90671 11.5653 4.3529C11.5653 4.3529 11.6123 3.47111 11.9272 3.21908C12.0456 3.14093 9.25634 4.2402 10.6518 8.33658C10.4018 8.3305 10.1571 8.40894 9.95719 8.55919C9.7573 8.70945 9.61393 8.92274 9.55028 9.16457C10.3375 9.38488 10.0118 10.5748 10.4525 11.3461C10.7623 10.4513 10.9673 8.7081 12.9036 9.16457C14.29 9.49135 15.6209 10.1919 17.2192 10.248C19.4772 10.3267 20.3346 9.14135 22.4295 9.0598Z" fill="#1F1104"/>
<path fill-rule="evenodd" clip-rule="evenodd" d="M18.3581 21.8575C18.5787 21.8945 18.8047 21.8839 19.021 21.8265C19.2372 21.769 19.4387 21.6661 19.612 21.5245C20.0197 21.0544 20.3522 20.3867 19.7337 20.0276C19.13 19.5989 18.4363 19.3138 17.7056 19.194C16.9706 19.3117 16.2723 19.5966 15.6645 20.0265C14.9056 20.4654 15.37 21.0544 15.7784 21.5245C15.9516 21.6661 16.1531 21.769 16.3693 21.8265C16.5856 21.8839 16.8116 21.8945 17.0323 21.8575C16.5729 20.2581 18.8179 20.2581 18.3581 21.8575Z" fill="#433D31"/>
</g>
<defs>
<clipPath id="clip0_95_209">
<rect width="35" height="35" fill="white"/>
</clipPath>
</defs>
</svg>
