<svg width="35" height="35" viewBox="0 0 35 35" fill="none" xmlns="http://www.w3.org/2000/svg">
<path d="M10.2156 5.87345C12.0964 4.77833 14.1987 4.11867 16.368 3.94298C18.6922 3.82813 20.825 4.37501 23.7836 5.79141C26.7422 7.20782 28.3773 8.5586 29.6297 10.8828C30.882 13.207 31.5602 14.9188 30.8766 17.943C30.193 20.9672 29.9852 24.0078 28.7711 26.1078C27.557 28.2078 25.5281 29.6625 22.5203 30.4172C19.5125 31.1719 15.2359 31.6641 11.5445 29.6297C7.85312 27.5953 5.25546 24.5711 4.29843 20.3875C3.3414 16.2039 4.1289 14.0274 4.8453 12.0641C5.91667 9.47273 7.80152 7.29998 10.2156 5.87345Z" fill="#1D1D1B"/>
<path d="M11.2383 6.18515C12.544 5.46399 13.9683 4.98243 15.4437 4.76327C17.6312 4.50624 21.1695 5.48515 21.5414 5.65468C21.9133 5.82421 22.225 5.92811 22.0883 6.03202C21.9516 6.13593 20.7047 7.22421 20.2617 7.2953C19.8187 7.3664 18.282 6.98905 17.1172 7.03827C15.9523 7.08749 15.1703 7.31171 14.607 7.31171C14.0437 7.31171 13.2398 6.69374 12.693 6.64452C12.1461 6.5953 10.9812 6.32186 11.2383 6.18515Z" fill="#4EAE4D"/>
<path d="M10.1609 7.03829C10.9162 6.81686 11.7267 6.8831 12.4359 7.22422C13.3219 7.70547 13.2234 7.90782 14.432 7.89141C15.6406 7.87501 16.2312 7.67266 16.5867 7.75469C16.9422 7.83672 18.4516 8.49297 19.7859 8.23594C20.628 8.09625 21.4279 7.76919 22.1266 7.27891C22.5203 7.02188 22.7555 6.59532 22.9961 6.62813C23.2367 6.66094 25.4078 7.9461 25.3695 8.08282C25.1328 8.4315 24.8109 8.71388 24.4344 8.90313C23.7446 9.3634 23.2122 10.0237 22.9086 10.7953C22.6351 11.5992 22.482 14.0109 22.843 14.2516C23.2039 14.4922 24.1227 14.1477 24.4836 14.4211C24.8445 14.6945 24.9266 15.5477 25.5281 15.6188C26.1297 15.6898 26.3812 15.2414 26.9281 15.6188C27.475 15.9961 27.475 16.2805 28.3281 16.3023C29.1812 16.3242 29.9687 16.1273 30.018 16.3023C30.074 16.5638 30.0511 16.8359 29.9523 17.0844C29.8648 17.1391 26.9773 17.4781 26.2937 17.5164C25.6102 17.5547 25.7469 17.7023 25.3695 17.5164C24.9922 17.3305 24.3961 16.625 23.5156 16.4883C22.6351 16.3516 19.9445 16.182 19.4141 16.182C18.8836 16.182 18.7305 16.182 18.6758 16.4391C18.6211 16.6961 18.7305 19.2719 18.457 20.1141C18.1836 20.9563 18.3695 22.3344 19.3594 22.7281C20.3492 23.1219 21.3773 23.3242 21.5141 23.6852C21.6508 24.0461 22.132 26.4195 22.5586 27.2234C22.9852 28.0273 23.5812 28.9461 23.3789 29.1156C22.3346 29.5625 21.228 29.8465 20.0976 29.9578C19.048 30.0871 17.9864 30.0871 16.9367 29.9578C16.9367 29.9578 16.3023 26.6766 16.1328 26.3813C15.949 25.9812 15.8718 25.5403 15.9086 25.1016C15.9797 24.8773 17.1883 22.4383 17.0351 21.8203C16.882 21.2023 16.6414 20.5734 16.0781 20.4203C15.5148 20.2672 14.5742 20.4203 13.0539 20.4203C12.075 20.4342 11.097 20.3536 10.1336 20.1797C9.82734 20.1141 9.65234 20.1797 9.51562 20.0266C9.3789 19.8734 8.26874 17.8391 8.42187 17.6531C8.57499 17.4672 10.1336 17.0188 10.1992 16.6578C10.2648 16.2969 10.1664 15.4273 10.5601 15.3945C10.9539 15.3617 12.6766 15.6023 13.2234 15.3125C13.7703 15.0227 13.8414 14.3555 13.8578 13.7703C13.8742 13.1852 13.6555 11.9109 13.3984 11.6703C13.1414 11.4297 10.6641 10.6805 9.72343 10.1828C8.78281 9.68516 7.98984 9.29688 8.09374 8.96876C8.64008 8.18766 9.34433 7.52998 10.1609 7.03829Z" fill="#85BFE9"/>
<path d="M11.2055 8.20313C11.5008 8.16485 11.5281 8.39454 11.4242 8.59688C11.3203 8.79922 11.4242 9.5375 11.7524 9.5211C12.9067 9.25987 14.0754 9.06631 15.2523 8.94141C16.7487 9.01322 18.2247 9.31765 19.6274 9.84375C20.0375 10.068 20.2289 10.9375 20.2617 11.1945C19.8678 12.2525 19.3638 13.2662 18.7578 14.2188C18.6047 14.3008 17.0133 13.6719 15.8703 13.125C14.7274 12.5781 14.2297 12.3211 14.1805 12.0969C14.1336 11.7774 14.0415 11.4662 13.907 11.1727C13.8031 11.1234 12.2664 11.0195 11.5281 10.5766C10.7899 10.1336 10.1281 9.41172 10.2649 9.10547C10.4842 8.71978 10.811 8.40625 11.2055 8.20313Z" fill="#1D1D1B"/>
<path d="M13.3219 9.77265C14.6432 9.5964 15.9852 9.65379 17.2867 9.94218C19.0312 10.2867 19.3047 10.5766 19.2555 11.0031C19.2062 11.4297 18.5555 13.1906 18.3148 13.1031C17.3207 12.7728 16.3504 12.3744 15.4109 11.9109C15.2906 11.7359 15.2523 10.8828 14.7437 10.7297C14.2351 10.5766 13.1687 10.2484 12.8133 10.1117C12.4578 9.97499 12.5398 9.83827 12.6219 9.83827C12.7039 9.83827 13.3219 9.77265 13.3219 9.77265Z" fill="#4EAE4D"/>
<path d="M26.0203 8.31799C26.1352 8.27971 27.6281 8.90315 28.6508 10.85C29.6734 12.7969 30.0016 15.1922 29.8813 15.411C29.7609 15.6297 29.3891 15.6516 29.0445 15.5477C28.7 15.4438 27.3438 14.6946 27.0484 14.6946C26.7531 14.6946 26.2773 14.9516 26.075 14.6946C25.8727 14.4375 25.2547 13.6719 24.6367 13.6719C24.0188 13.6719 23.8875 13.7758 23.7836 13.6391C23.6797 13.5024 23.3406 10.6149 23.9859 10.0844C24.6313 9.55393 25.2 9.21487 25.457 8.99065C25.7141 8.76643 25.8672 8.37268 26.0203 8.31799Z" fill="#4EAE4D"/>
<path d="M19.5289 16.9531C19.7258 16.9531 22.657 16.7344 23.2367 17.2977C23.8164 17.8609 24.2977 18.4734 24.7898 18.457C25.282 18.4406 29.8156 18.0469 29.8156 18.2219C29.8156 18.3969 29.3016 22.3234 28.5141 24.3195C27.8971 25.8699 26.8473 27.2101 25.4898 28.1805C24.8609 28.5414 24.2102 28.6781 24.1609 28.5742C23.5874 27.5602 23.1655 26.4676 22.9086 25.3312C22.5367 23.5703 22.4328 22.75 21.8531 22.5969C21.2734 22.4437 19.8352 22.1047 19.5617 21.7602C19.3767 21.4498 19.2715 21.0984 19.2555 20.7375C19.2555 20.7375 19.4086 18.6156 19.4086 18.1562C19.4086 17.6969 19.425 16.9531 19.5289 16.9531Z" fill="#4EAE4D"/>
<path d="M9.53204 20.8961C10.3736 21.2326 11.2727 21.4016 12.1789 21.3938C13.9891 21.4266 15.7664 21.2242 15.9578 21.443C16.1492 21.6617 16.1109 22.4164 15.7172 23.1383C15.469 23.5954 15.2516 24.0686 15.0664 24.5547C14.5264 24.0552 13.9486 23.5981 13.3383 23.1875C13.2673 23.2178 13.2095 23.2725 13.1754 23.3417C13.1413 23.411 13.1331 23.4901 13.1524 23.5649C13.2234 23.718 14.793 24.7789 14.8641 24.9157C14.8746 25.2357 14.8563 25.556 14.8094 25.8727C14.2956 25.3987 13.7472 24.9637 13.1688 24.5711C12.9664 24.5383 12.8297 25.036 12.8953 25.118C12.9609 25.2 14.8258 26.4852 15.0828 26.7094C15.3367 27.1308 15.4937 27.6034 15.5422 28.093C15.493 28.093 13.4094 26.4032 13.2891 26.3813C13.1688 26.3594 13.1359 26.9282 13.1359 26.9282C13.1359 26.9282 15.5969 28.6727 15.6789 28.8094C15.8099 29.1382 15.891 29.4847 15.9195 29.8375C15.2562 29.709 14.6007 29.5429 13.9563 29.3399C13.2727 29.0828 12.6711 28.9461 12.6711 28.8969C12.6711 28.8477 12.0313 26.8297 11.1344 25.9547C10.6395 25.5333 10.2052 25.0457 9.84376 24.5055C9.73923 23.8318 9.67531 23.1525 9.65235 22.4711C9.63048 22.0063 9.42813 20.8961 9.53204 20.8961Z" fill="#4EAE4D"/>
<path d="M5.75312 21C5.85703 20.7977 7.15312 21.1367 7.77109 21.3774C8.38906 21.618 8.59141 21.9242 8.60781 22.4C8.62422 22.8758 8.53672 24.9485 8.96328 25.3258C9.64344 25.7983 10.2157 26.4097 10.6422 27.1196C10.8899 27.4856 11.0747 27.8903 11.1891 28.3172C9.91984 27.5429 8.82044 26.5198 7.95703 25.3094C6.2125 23.0508 5.70391 21.1039 5.75312 21Z" fill="#85BFE9"/>
<path d="M5.25547 19.7859C4.74404 18.067 4.72132 16.2397 5.18985 14.5086C5.93907 11.3968 7.37735 9.73982 7.49766 9.75622C7.61797 9.77263 10.4508 11.3968 11.5992 11.9437C12.7477 12.4906 12.8133 12.4906 12.8953 12.7312C12.9622 13.3416 12.927 13.9589 12.7914 14.5578C12.693 14.607 10.6422 14.5086 10.057 14.5578C9.47188 14.607 9.29688 15.4273 9.34063 15.7554C9.38438 16.0836 9.41172 16.2312 9.27501 16.3351C9.13829 16.439 7.30626 16.9312 7.20782 17.4289C7.10938 17.9265 8.50391 20.3656 8.30157 20.4367C8.09922 20.5078 5.80235 20.3492 5.25547 19.7859Z" fill="#4EAE4D"/>
<path d="M6.21249 13.7703C6.35651 13.0854 6.56903 12.4166 6.84687 11.7742C7.12031 11.3641 7.24062 11.2766 7.36093 11.3094C7.48124 11.3422 7.82031 11.5008 7.78749 11.5992C7.75468 11.6977 7.16953 12.8297 7.0164 13.3273C6.86328 13.825 7.0164 13.825 6.79765 13.8742C6.5789 13.9234 6.28359 13.8906 6.21249 13.7703Z" fill="#1D1D1B"/>
<path d="M21.875 8.52578C21.9625 8.44922 23.2586 8.13203 23.3461 8.25234C23.4336 8.37266 23.532 8.49297 23.4445 8.55859C22.989 8.78611 22.508 8.95868 22.0117 9.07266C21.9023 9.01797 21.7656 8.60781 21.875 8.52578Z" fill="#1D1D1B"/>
<path d="M21.0328 12.5399C21.1148 12.6274 21.8367 13.7867 21.7492 13.8906C21.6617 13.9945 21.7492 14.1477 21.5633 14.0602C21.1972 13.7218 20.9098 13.3074 20.7211 12.8461C20.7812 12.7094 21.0328 12.5399 21.0328 12.5399Z" fill="#1D1D1B"/>
<path d="M20.2344 13.3274C20.5894 13.6722 20.9049 14.0556 21.175 14.4703C21.175 14.5742 21.175 14.7274 21.0055 14.6781C20.6139 14.4003 20.2704 14.0604 19.9883 13.6719C19.9883 13.5844 20.2344 13.311 20.2344 13.3274Z" fill="#1D1D1B"/>
<path d="M26.9773 10.7461C27.4722 10.8772 27.9367 11.1039 28.3445 11.4133C28.3445 11.5172 28.3992 11.7906 28.2625 11.7359C28.1258 11.6812 26.8734 11.1891 26.8242 11.1234C26.775 11.0578 26.9609 10.7625 26.9773 10.7461Z" fill="#1D1D1B"/>
<path d="M26.857 12.0313C26.9008 11.9711 29.0445 13.2235 29.0445 13.4149C29.0445 13.6063 29.2359 13.7375 29.0117 13.7047C28.207 13.3729 27.4299 12.9779 26.6875 12.5235C26.6219 12.4196 26.7969 12.1133 26.857 12.0313Z" fill="#1D1D1B"/>
<path d="M26.6547 13.125C27.5862 13.5054 28.4737 13.9859 29.3016 14.5578C29.3344 14.7109 29.4547 14.8805 29.2359 14.8641C28.3072 14.4934 27.4047 14.0604 26.5344 13.568C26.4852 13.4969 26.5836 13.1578 26.6547 13.125Z" fill="#1D1D1B"/>
<path d="M27.1687 19.4305C27.772 19.8532 28.3069 20.3659 28.7547 20.9508C28.7055 21.0875 28.7547 21.1531 28.6016 21.1039C27.9881 20.6619 27.4169 20.1639 26.8953 19.6164C26.9281 19.5289 27.0812 19.4633 27.1687 19.4305Z" fill="#1D1D1B"/>
<path d="M26.3101 20.4695C26.9666 20.9951 27.5793 21.573 28.1422 22.1977C28.1422 22.3344 28.0711 22.4547 28.0055 22.4383C27.3489 21.9262 26.7209 21.3785 26.1242 20.7977C26.1782 20.6839 26.2403 20.5743 26.3101 20.4695Z" fill="#1D1D1B"/>
<path d="M25.7633 21.5797C26.4337 22.1215 27.0475 22.7298 27.5953 23.3953C27.557 23.5321 27.6281 23.6141 27.4586 23.5977C26.781 23.0628 26.1364 22.4876 25.5281 21.875C25.5956 21.7684 25.6744 21.6694 25.7633 21.5797Z" fill="#1D1D1B"/>
<path d="M25.3367 22.4875C26.0059 23.0339 26.6296 23.6338 27.2016 24.2812C27.2016 24.418 27.1469 24.5055 27.0812 24.4508C26.3502 23.9272 25.6491 23.3631 24.9812 22.7609C25.0122 22.6888 25.0611 22.6258 25.1233 22.5779C25.1856 22.53 25.259 22.4989 25.3367 22.4875Z" fill="#1D1D1B"/>
<path d="M24.9977 24.1281C25.6169 24.5502 26.1793 25.0502 26.6711 25.6156C26.6711 25.7359 26.5836 25.818 26.5344 25.8016C25.9259 25.3813 25.3433 24.9248 24.7898 24.4344C24.7734 24.3305 24.9594 24.1445 24.9977 24.1281Z" fill="#1D1D1B"/>
<path d="M24.6094 25.118C24.7023 25.118 26.3867 26.5891 26.25 26.7258C26.1133 26.8625 26.1844 26.9281 26.0477 26.8789C25.4328 26.4426 24.8597 25.9501 24.3359 25.4078C24.3961 25.3258 24.5164 25.118 24.6094 25.118Z" fill="#1D1D1B"/>
<path d="M19.2391 23.7508C19.2883 23.6742 19.9555 23.9203 19.939 24.0789C19.9226 24.2375 19.939 24.2649 19.8515 24.2649C19.5616 24.2298 19.2791 24.1486 19.0148 24.0242C19.0148 23.9586 19.2008 23.8055 19.2391 23.7508Z" fill="#1D1D1B"/>
<path d="M18.1234 25.8562C18.2236 25.8129 18.3315 25.7905 18.4406 25.7905C18.5497 25.7905 18.6577 25.8129 18.7578 25.8562C19.0148 25.9765 19.3922 26.4031 19.7312 26.4578C20.0703 26.5125 20.3328 26.3047 20.4148 26.3539C20.4587 26.3783 20.4919 26.4181 20.5081 26.4656C20.5243 26.513 20.5222 26.5649 20.5023 26.6109C20.4477 26.6984 20.4148 26.7805 20.2781 26.8133C20.0045 26.894 19.7101 26.8645 19.4578 26.7312C19.1406 26.518 18.9437 26.25 18.5937 26.25C18.2437 26.25 18.282 26.3156 18.2164 26.25C18.1508 26.1844 17.9867 25.9711 18.1234 25.8562Z" fill="#1D1D1B"/>
<path d="M14.2188 21.957C14.3555 22.0445 15.3453 22.9141 15.3125 23.0508C15.2797 23.1875 15.2086 23.3242 15.1047 23.2914C14.6682 23.0162 14.2724 22.6812 13.9289 22.2961C13.9234 22.1648 14.2188 21.957 14.2188 21.957Z" fill="#1D1D1B"/>
<path d="M13.2398 16.6414C13.3055 16.6414 14.7766 18.9328 14.6562 19.0531C14.5359 19.1734 14.4703 19.2938 14.3992 19.2227C13.8361 18.4622 13.3175 17.6697 12.8461 16.8492C12.9519 16.7399 13.0898 16.6671 13.2398 16.6414Z" fill="#1D1D1B"/>
<path d="M13.8031 16.4062C13.8031 16.3406 14.1258 16.1984 14.2297 16.3023C14.5416 16.7643 14.7933 17.2642 14.9789 17.7898C14.9297 17.8883 14.9789 18.0469 14.8422 17.943C14.4472 17.4654 14.0992 16.9507 13.8031 16.4062Z" fill="#1D1D1B"/>
<path d="M16.8109 16.2477C16.8547 16.1875 17.3578 15.7008 17.5109 15.7008C17.6641 15.7008 18.0578 15.7008 18.0086 15.8211C17.9594 15.9414 17.2375 16.8657 17.1008 16.7782C16.9464 16.6396 16.8441 16.4524 16.8109 16.2477Z" fill="#1D1D1B"/>
</svg>
