<svg width="35" height="35" viewBox="0 0 35 35" fill="none" xmlns="http://www.w3.org/2000/svg">
<path d="M30.275 31.4891H26.6328L26.6219 30.574C26.6255 30.5485 26.6182 28.2406 26.3667 24.7115C26.0604 20.4167 25.6229 16.3917 20.6391 13.2672L21.4776 12.3776C24.1682 13.9818 26.476 16.2058 27.5917 18.0979C29.0391 20.5589 29.5349 21.8677 29.9688 24.1427C30.7089 27.9927 30.2932 31.3651 30.275 31.4891Z" fill="black"/>
<path d="M19.3339 30.5363C19.3339 31.0467 19.2865 31.5425 19.1953 32.0238H4.41875C4.3276 31.5425 4.28021 31.0431 4.28021 30.5363C4.28021 29.654 4.42604 28.8045 4.68854 28.0134C5.70573 24.9837 8.50938 22.8071 11.8052 22.8071C15.101 22.8071 17.9047 24.9837 18.9219 28.0134C19.1917 28.8045 19.3339 29.654 19.3339 30.5363Z" fill="black"/>
<path d="M33.8078 31.6713C33.8078 32.2255 33.5818 32.725 33.2208 33.0896C32.8599 33.4542 32.3568 33.6766 31.8026 33.6766H3.14636C2.03802 33.6766 1.14115 32.7797 1.14115 31.6713C1.14115 31.1172 1.36719 30.6177 1.72813 30.2531C2.09271 29.8922 2.59219 29.6661 3.14636 29.6661H31.8026C32.9109 29.6661 33.8078 30.563 33.8078 31.6713Z" fill="black"/>
<path d="M33.5599 13.6573C33.9172 13.6573 34.0557 13.0703 33.7604 12.8224C32.6958 11.9255 30.625 10.6276 27.5734 10.6094C24.5 10.5875 22.4365 11.9255 21.3901 12.8406C21.0984 13.0959 21.2406 13.6719 21.5943 13.6719L33.5599 13.6573Z" fill="black"/>
<path d="M30.1729 5.42138C30.4245 5.16982 30.1109 4.65576 29.7245 4.68857C28.3354 4.80888 25.9547 5.35576 23.7854 7.49951C21.5979 9.65784 21.0839 12.0604 20.9891 13.4495C20.9635 13.836 21.4703 14.1459 21.7219 13.8943L30.1729 5.42138Z" fill="black"/>
<path d="M22.1484 13.3948C22.4 13.1432 22.0865 12.6291 21.7 12.662C20.3109 12.7823 17.9302 13.3291 15.7609 15.4729C13.5734 17.6312 13.0594 20.0338 12.9646 21.4229C12.9391 21.8094 13.4458 22.1193 13.6974 21.8677L22.1484 13.3948Z" fill="black"/>
<path d="M22.4875 1.52762C22.4875 1.17033 21.9005 1.03179 21.6526 1.3271C20.7557 2.39169 19.4578 4.46252 19.4396 7.51408C19.4177 10.5875 20.7557 12.6511 21.6708 13.6974C21.926 13.9891 22.5021 13.8469 22.5021 13.4932L22.4875 1.52762Z" fill="black"/>
<path d="M22.4875 12.7349C22.4875 12.3776 21.9005 12.2391 21.6526 12.5344C20.7557 13.599 19.4578 15.6698 19.4396 18.7214C19.4177 21.7948 20.7557 23.8583 21.6708 24.9047C21.926 25.1964 22.5021 25.0542 22.5021 24.7005L22.4875 12.7349Z" fill="black"/>
<path d="M21.9661 13.7484C22.3234 13.7484 22.462 13.1615 22.1667 12.9135C21.1021 12.0167 19.0312 10.7188 15.9797 10.7005C12.9062 10.6786 10.8427 12.0167 9.79635 12.9318C9.50469 13.187 9.64687 13.763 10.0005 13.763L21.9661 13.7484Z" fill="black"/>
</svg>
